<svg width="192" height="192" viewBox="0 0 192 192" fill="none" xmlns="http://www.w3.org/2000/svg">
  <rect width="192" height="192" rx="24" fill="#1f2937"/>
  <g transform="translate(32, 32)">
    <!-- Hexagon pattern -->
    <polygon points="64,16 96,36 96,76 64,96 32,76 32,36" fill="#3b82f6" stroke="#60a5fa" stroke-width="2"/>
    <polygon points="64,36 80,46 80,66 64,76 48,66 48,46" fill="#1e40af" stroke="#3b82f6" stroke-width="1"/>
    
    <!-- Location pin -->
    <circle cx="64" cy="56" r="8" fill="#ef4444"/>
    <circle cx="64" cy="56" r="4" fill="#ffffff"/>
    
    <!-- Game elements -->
    <polygon points="24,24 40,32 40,48 24,56 8,48 8,32" fill="#10b981" stroke="#34d399" stroke-width="1" opacity="0.8"/>
    <polygon points="104,24 120,32 120,48 104,56 88,48 88,32" fill="#f59e0b" stroke="#fbbf24" stroke-width="1" opacity="0.8"/>
    <polygon points="24,88 40,96 40,112 24,120 8,112 8,96" fill="#8b5cf6" stroke="#a78bfa" stroke-width="1" opacity="0.8"/>
    <polygon points="104,88 120,96 120,112 104,120 88,112 88,96" fill="#ef4444" stroke="#f87171" stroke-width="1" opacity="0.8"/>
  </g>
  
  <!-- Title -->
  <text x="96" y="170" text-anchor="middle" fill="#ffffff" font-family="Arial, sans-serif" font-size="14" font-weight="bold">HexaConquest</text>
</svg>